<svg width="20" height="21" viewBox="0 0 20 21" fill="none" xmlns="http://www.w3.org/2000/svg">
<path d="M18.3332 14.6V17.1C18.3341 17.3321 18.2866 17.5618 18.1936 17.7745C18.1006 17.9871 17.9643 18.178 17.7933 18.3349C17.6222 18.4918 17.4203 18.6112 17.2005 18.6856C16.9806 18.7599 16.7477 18.7876 16.5165 18.7667C13.9522 18.488 11.489 17.6118 9.32486 16.2083C7.31139 14.9289 5.60431 13.2218 4.32486 11.2083C2.91651 9.03434 2.04007 6.55916 1.76653 3.98334C1.7457 3.75289 1.77309 3.52064 1.84695 3.30136C1.9208 3.08208 2.03951 2.88058 2.1955 2.70969C2.3515 2.5388 2.54137 2.40226 2.75302 2.30877C2.96468 2.21528 3.19348 2.16689 3.42486 2.16667H5.92486C6.32928 2.16269 6.72136 2.3059 7.028 2.56961C7.33464 2.83332 7.53493 3.19954 7.59153 3.6C7.69705 4.40006 7.89274 5.18561 8.17486 5.94167C8.28698 6.23994 8.31125 6.5641 8.24478 6.87574C8.17832 7.18737 8.02392 7.47343 7.79986 7.7L6.74153 8.75834C7.92783 10.8446 9.65524 12.572 11.7415 13.7583L12.7999 12.7C13.0264 12.4759 13.3125 12.3215 13.6241 12.2551C13.9358 12.1886 14.2599 12.2129 14.5582 12.325C15.3143 12.6071 16.0998 12.8028 16.8999 12.9083C17.3047 12.9654 17.6744 13.1693 17.9386 13.4812C18.2029 13.7932 18.3433 14.1913 18.3332 14.6Z" fill="white"/>
</svg>
